<svg xmlns="http://www.w3.org/2000/svg" width="21.494" height="16.38" viewBox="0 0 21.494 16.38">
  <path id="Tracciato_59775" data-name="Tracciato 59775" d="M21.2,72.893l-7.165,7.165a1.025,1.025,0,0,1-1.749-.725V75.239h-5.8a1.021,1.021,0,0,1-1.024-1.024V70.121A1.021,1.021,0,0,1,6.483,69.1h5.8V65a1.026,1.026,0,0,1,1.749-.725L21.2,71.443A1.032,1.032,0,0,1,21.2,72.893ZM8.189,79.845V78.139a.513.513,0,0,0-.512-.512H4.094A1.363,1.363,0,0,1,2.73,76.263V68.074a1.363,1.363,0,0,1,1.365-1.365H7.677a.513.513,0,0,0,.512-.512V64.491a.513.513,0,0,0-.512-.512H4.094A4.1,4.1,0,0,0,0,68.074v8.189a4.1,4.1,0,0,0,4.094,4.094H7.677A.513.513,0,0,0,8.189,79.845Z" transform="translate(0 -63.979)" fill="#d5d5d5"/>
</svg>
