<svg xmlns="http://www.w3.org/2000/svg" width="24" height="24" viewBox="0 0 24 24">
  <g id="Raggruppa_21226" data-name="Raggruppa 21226" transform="translate(-370 -224)">
    <path id="Tracciato_60142" data-name="Tracciato 60142" d="M20.153,18.094H19.069l-.384-.37a8.933,8.933,0,1,0-.961.961l.37.384v1.084L24.955,27,27,24.955Zm-8.233,0a6.175,6.175,0,1,1,6.175-6.175A6.167,6.167,0,0,1,11.919,18.094Z" transform="translate(367 221)" fill="#0053a8"/>
    <path id="Tracciato_60194" data-name="Tracciato 60194" d="M20.153,18.094H19.069l-.384-.37c1.345-1.564-2.525,2.305-.961.961l.37.384v1.084L24.955,27,27,24.955Z" transform="translate(367 221)" fill="#b8191a"/>
  </g>
</svg>
