<svg xmlns="http://www.w3.org/2000/svg" xmlns:xlink="http://www.w3.org/1999/xlink" width="44.102" height="29" viewBox="0 0 44.102 29">
  <defs>
    <clipPath id="clip-path">
      <rect id="Rettangolo_146396" data-name="Rettangolo 146396" width="44.102" height="29" transform="translate(0 0)" fill="none"/>
    </clipPath>
  </defs>
  <g id="Raggruppa_20726" data-name="Raggruppa 20726" transform="translate(0 -0.003)">
    <g id="Raggruppa_20725" data-name="Raggruppa 20725" transform="translate(0 0.003)" clip-path="url(#clip-path)">
      <path id="Tracciato_60932" data-name="Tracciato 60932" d="M1662.774,8.863h0a4.468,4.468,0,0,1-4.427-4.427A4.43,4.43,0,0,1,1662.774,0h0A4.468,4.468,0,0,1,1667.2,4.43a4.43,4.43,0,0,1-4.43,4.433m0-7.183a2.753,2.753,0,0,0-2.753,2.755,2.791,2.791,0,0,0,2.751,2.751h0a2.753,2.753,0,0,0,2.753-2.755,2.791,2.791,0,0,0-2.751-2.751Z" transform="translate(-1627.646 -0.003)" fill="#0060c1"/>
      <path id="Tracciato_60933" data-name="Tracciato 60933" d="M1466.3,595.948h-.159a8.083,8.083,0,0,0-7.976,8.1v1.081a1.331,1.331,0,0,0,1.331,1.331H1473.1a1.331,1.331,0,0,0,1.331-1.331v-1.081a8.083,8.083,0,0,0-7.976-8.1h-.16" transform="translate(-1431.168 -584.916)" fill="#fff"/>
      <path id="Tracciato_60934" data-name="Tracciato 60934" d="M1428.647,562.842h-13.609a2.172,2.172,0,0,1-2.169-2.17v-1.081a8.936,8.936,0,0,1,2.569-6.279,8.817,8.817,0,0,1,6.236-2.656c.112,0,.224,0,.336,0a8.817,8.817,0,0,1,6.237,2.656,8.936,8.936,0,0,1,2.569,6.279v1.081a2.172,2.172,0,0,1-2.169,2.17m-6.8-10.51h-.151a7.262,7.262,0,0,0-7.146,7.258v1.081a.493.493,0,0,0,.493.493h13.609a.493.493,0,0,0,.493-.493v-1.081a7.262,7.262,0,0,0-7.146-7.258h-.151" transform="translate(-1386.714 -540.463)" fill="#0060c1"/>
      <path id="Tracciato_60936" data-name="Tracciato 60936" d="M249.9,8.863h0a4.468,4.468,0,0,1-4.427-4.427A4.43,4.43,0,0,1,249.9,0h0a4.468,4.468,0,0,1,4.427,4.427,4.43,4.43,0,0,1-4.43,4.433m0-7.183a2.753,2.753,0,0,0-2.753,2.755A2.791,2.791,0,0,0,249.9,7.186h0a2.753,2.753,0,0,0,2.753-2.755,2.791,2.791,0,0,0-2.751-2.751Z" transform="translate(-240.93 -0.003)" fill="#0060c1"/>
      <path id="Tracciato_60937" data-name="Tracciato 60937" d="M53.427,595.948h-.159a8.083,8.083,0,0,0-7.976,8.1v1.081a1.331,1.331,0,0,0,1.331,1.331H60.231a1.331,1.331,0,0,0,1.331-1.331v-1.081a8.083,8.083,0,0,0-7.976-8.1h-.159" transform="translate(-44.453 -584.916)" fill="#fff"/>
      <path id="Tracciato_60938" data-name="Tracciato 60938" d="M15.778,562.842H2.169A2.172,2.172,0,0,1,0,560.673v-1.081a8.921,8.921,0,0,1,8.806-8.935c.112,0,.224,0,.336,0a8.817,8.817,0,0,1,6.237,2.656,8.937,8.937,0,0,1,2.569,6.279v1.081a2.172,2.172,0,0,1-2.169,2.17m-6.8-10.51H8.823a7.262,7.262,0,0,0-7.146,7.258v1.081a.493.493,0,0,0,.493.493H15.778a.493.493,0,0,0,.493-.493v-1.081a7.262,7.262,0,0,0-7.146-7.258H8.974" transform="translate(0 -540.463)" fill="#0060c1"/>
      <path id="Tracciato_60939" data-name="Tracciato 60939" d="M647.769,806.05h-.176a10.192,10.192,0,0,0-10.074,10.207v1.356a1.677,1.677,0,0,0,1.677,1.677h17.145a1.677,1.677,0,0,0,1.677-1.677v-1.356a10.192,10.192,0,0,0-10.074-10.207h-.176" transform="translate(-625.718 -791.129)" fill="#fff"/>
      <path id="Tracciato_60940" data-name="Tracciato 60940" d="M611.888,775.677H594.742a2.518,2.518,0,0,1-2.515-2.515v-1.356a11.062,11.062,0,0,1,6.648-10.146,10.884,10.884,0,0,1,4.256-.9c.122,0,.244,0,.366,0a10.943,10.943,0,0,1,7.721,3.277,11.042,11.042,0,0,1,3.184,7.768v1.356a2.518,2.518,0,0,1-2.515,2.515m-8.573-13.241h-.168a9.375,9.375,0,0,0-9.243,9.369v1.356a.84.84,0,0,0,.839.839h17.145a.839.839,0,0,0,.838-.839v-1.356a9.375,9.375,0,0,0-9.243-9.369h-.168" transform="translate(-581.264 -746.677)" fill="#fff"/>
      <path id="Tracciato_60942" data-name="Tracciato 60942" d="M956.339,292.731h0a4.43,4.43,0,0,1,0-8.86h0a4.43,4.43,0,0,1,0,8.86m0-7.183a2.753,2.753,0,0,0-2.753,2.755,2.791,2.791,0,0,0,2.751,2.751h0a2.753,2.753,0,0,0,2.753-2.755,2.791,2.791,0,0,0-2.751-2.751Z" transform="translate(-934.288 -278.616)" fill="#b8191a"/>
      <path id="Tracciato_60944" data-name="Tracciato 60944" d="M722.211,846.711H708.6a2.172,2.172,0,0,1-2.169-2.169V843.46A8.935,8.935,0,0,1,709,837.181a8.816,8.816,0,0,1,6.237-2.656q.168,0,.336,0a8.817,8.817,0,0,1,6.237,2.656,8.938,8.938,0,0,1,2.569,6.279v1.081a2.172,2.172,0,0,1-2.17,2.169m-6.8-10.51h-.151a7.262,7.262,0,0,0-7.146,7.258v1.081a.493.493,0,0,0,.493.493h13.609a.493.493,0,0,0,.493-.493V843.46a7.262,7.262,0,0,0-7.146-7.258h-.151" transform="translate(-693.356 -819.076)" fill="#b8191a"/>
    </g>
  </g>
</svg>
