<svg xmlns="http://www.w3.org/2000/svg" xmlns:xlink="http://www.w3.org/1999/xlink" width="21.45" height="14.105" viewBox="0 0 21.45 14.105">
  <defs>
    <clipPath id="clip-path">
      <rect id="Rettangolo_146510" data-name="Rettangolo 146510" width="21.45" height="14.105" transform="translate(0 0)" fill="none"/>
    </clipPath>
  </defs>
  <g id="Raggruppa_21222" data-name="Raggruppa 21222" clip-path="url(#clip-path)">
    <path id="Tracciato_70331" data-name="Tracciato 70331" d="M1660.5,4.312h0a2.173,2.173,0,0,1-2.153-2.153A2.155,2.155,0,0,1,1660.5,0h0a2.173,2.173,0,0,1,2.153,2.153,2.155,2.155,0,0,1-2.155,2.156m0-3.494a1.339,1.339,0,0,0-1.339,1.34A1.357,1.357,0,0,0,1660.5,3.5h0a1.339,1.339,0,0,0,1.339-1.34A1.357,1.357,0,0,0,1660.5.819Z" transform="translate(-1643.413 -0.003)" fill="#0060c1"/>
    <path id="Tracciato_70332" data-name="Tracciato 70332" d="M1462.117,595.948h-.078a3.931,3.931,0,0,0-3.879,3.938v.526a.647.647,0,0,0,.647.647h6.619a.647.647,0,0,0,.647-.647v-.526a3.931,3.931,0,0,0-3.879-3.938h-.078" transform="translate(-1445.032 -590.582)" fill="#fff"/>
    <path id="Tracciato_70333" data-name="Tracciato 70333" d="M1420.542,556.583h-6.619a1.056,1.056,0,0,1-1.055-1.055V555a4.345,4.345,0,0,1,1.25-3.054,4.287,4.287,0,0,1,3.033-1.292h.163a4.288,4.288,0,0,1,3.033,1.292A4.347,4.347,0,0,1,1421.6,555v.526a1.056,1.056,0,0,1-1.055,1.055m-3.31-5.112h-.073a3.532,3.532,0,0,0-3.476,3.53v.526a.24.24,0,0,0,.24.24h6.619a.24.24,0,0,0,.24-.24V555a3.532,3.532,0,0,0-3.476-3.53" transform="translate(-1400.147 -545.698)" fill="#0060c1"/>
    <path id="Tracciato_70334" data-name="Tracciato 70334" d="M247.629,4.312h0a2.173,2.173,0,0,1-2.153-2.153A2.155,2.155,0,0,1,247.629,0h0a2.173,2.173,0,0,1,2.153,2.153,2.155,2.155,0,0,1-2.155,2.156m0-3.494a1.339,1.339,0,0,0-1.339,1.34A1.357,1.357,0,0,0,247.628,3.5h0a1.339,1.339,0,0,0,1.339-1.34A1.357,1.357,0,0,0,247.63.819Z" transform="translate(-243.264 -0.003)" fill="#0060c1"/>
    <path id="Tracciato_70335" data-name="Tracciato 70335" d="M49.248,595.948H49.17a3.931,3.931,0,0,0-3.879,3.938v.526a.647.647,0,0,0,.647.647h6.619a.647.647,0,0,0,.647-.647v-.526a3.931,3.931,0,0,0-3.879-3.938h-.078" transform="translate(-44.883 -590.582)" fill="#fff"/>
    <path id="Tracciato_70336" data-name="Tracciato 70336" d="M7.674,556.583H1.055A1.056,1.056,0,0,1,0,555.528V555a4.339,4.339,0,0,1,4.283-4.346h.163a4.288,4.288,0,0,1,3.033,1.292A4.347,4.347,0,0,1,8.729,555v.526a1.056,1.056,0,0,1-1.055,1.055m-3.31-5.112H4.291A3.532,3.532,0,0,0,.816,555v.526a.24.24,0,0,0,.24.24H7.674a.24.24,0,0,0,.24-.24V555a3.532,3.532,0,0,0-3.476-3.53H4.365" transform="translate(0 -545.698)" fill="#0060c1"/>
    <path id="Tracciato_70337" data-name="Tracciato 70337" d="M642.5,806.05h-.086a4.957,4.957,0,0,0-4.9,4.964v.66a.816.816,0,0,0,.816.816h8.339a.816.816,0,0,0,.816-.816v-.66a4.957,4.957,0,0,0-4.9-4.964H642.5" transform="translate(-631.779 -798.793)" fill="#fff"/>
    <path id="Tracciato_70338" data-name="Tracciato 70338" d="M601.79,768.015H593.45a1.225,1.225,0,0,1-1.223-1.223v-.66a5.38,5.38,0,0,1,3.234-4.935,5.294,5.294,0,0,1,2.07-.437h.178a5.323,5.323,0,0,1,3.755,1.594,5.37,5.37,0,0,1,1.549,3.778v.66a1.225,1.225,0,0,1-1.223,1.223m-4.17-6.44h-.082a4.56,4.56,0,0,0-4.5,4.557v.66a.408.408,0,0,0,.408.408h8.339a.408.408,0,0,0,.408-.408v-.66a4.56,4.56,0,0,0-4.5-4.557h-.082" transform="translate(-586.895 -753.91)" fill="#fff"/>
    <path id="Tracciato_70339" data-name="Tracciato 70339" d="M954.064,288.18h0a2.155,2.155,0,0,1,0-4.309h0a2.155,2.155,0,0,1,0,4.309m0-3.494a1.339,1.339,0,0,0-1.339,1.34,1.357,1.357,0,0,0,1.338,1.338h0a1.339,1.339,0,0,0,1.339-1.34,1.357,1.357,0,0,0-1.338-1.338Z" transform="translate(-943.339 -281.315)" fill="#0060c1"/>
    <path id="Tracciato_70340" data-name="Tracciato 70340" d="M714.107,840.451h-6.619a1.056,1.056,0,0,1-1.055-1.055v-.526a4.346,4.346,0,0,1,1.25-3.054,4.288,4.288,0,0,1,3.033-1.292h.163a4.288,4.288,0,0,1,3.034,1.292,4.346,4.346,0,0,1,1.25,3.054v.526a1.056,1.056,0,0,1-1.055,1.055" transform="translate(-700.073 -827.011)" fill="#0060c1"/>
  </g>
</svg>
