<svg id="Raggruppa_21223" data-name="Raggruppa 21223" xmlns="http://www.w3.org/2000/svg" width="21.303" height="18.469" viewBox="0 0 21.303 18.469">
  <g id="Raggruppa_21212" data-name="Raggruppa 21212">
    <path id="Tracciato_70329" data-name="Tracciato 70329" d="M21.3,2.091A2.093,2.093,0,0,0,19.212,0H2.1A2.1,2.1,0,0,0,0,2.091V13.905A2.1,2.1,0,0,0,2.1,16H9.121v1.451h-4.8a.51.51,0,1,0,0,1.021H16.987a.51.51,0,1,0,0-1.021H12.853V16h6.359A2.093,2.093,0,0,0,21.3,13.905V2.091ZM11.832,17.448h-1.69V16h1.69Zm7.38-2.472H2.1a1.076,1.076,0,0,1-1.079-1.07V2.091A1.076,1.076,0,0,1,2.1,1.021H19.212a1.071,1.071,0,0,1,1.07,1.07V13.905a1.071,1.071,0,0,1-1.07,1.07" fill="#0060c1"/>
    <path id="Tracciato_70330" data-name="Tracciato 70330" d="M104.222,81.009h-.655V70.791a.51.51,0,0,0-.51-.51h-1.748a.51.51,0,0,0-.51.51V81.009h-.869V74a.51.51,0,0,0-.51-.51H97.67a.51.51,0,0,0-.51.51v7.013h-.878V72.54a.51.51,0,0,0-.51-.51H94.024a.51.51,0,0,0-.51.51v8.469h-.869V75.454a.51.51,0,0,0-.51-.51H90.386a.51.51,0,0,0-.51.51v5.556h-.558a.51.51,0,0,0,0,1.021h14.9a.51.51,0,0,0,0-1.021" transform="translate(-86.14 -68.171)" fill="#0060c1"/>
  </g>
</svg>
