<svg id="Raggruppa_21210" data-name="Raggruppa 21210" xmlns="http://www.w3.org/2000/svg" width="42.644" height="36.971" viewBox="0 0 42.644 36.971">
  <g id="Raggruppa_21212" data-name="Raggruppa 21212">
    <path id="Tracciato_70329" data-name="Tracciato 70329" d="M42.644,4.186A4.191,4.191,0,0,0,38.459,0H4.2A4.2,4.2,0,0,0,0,4.186v23.65a4.2,4.2,0,0,0,4.2,4.186H18.259v2.905h-9.6a1.022,1.022,0,1,0,0,2.044H34a1.022,1.022,0,0,0,0-2.044H25.729V32.022h12.73a4.191,4.191,0,0,0,4.186-4.186V4.186ZM23.685,34.927H20.3V32.022h3.383Zm14.774-4.949H4.2a2.153,2.153,0,0,1-2.16-2.142V4.186A2.153,2.153,0,0,1,4.2,2.044H38.459A2.145,2.145,0,0,1,40.6,4.186v23.65a2.145,2.145,0,0,1-2.142,2.142" fill="#0060c1"/>
    <path id="Tracciato_70330" data-name="Tracciato 70330" d="M119.665,91.757h-1.311V71.3a1.022,1.022,0,0,0-1.022-1.022h-3.5A1.022,1.022,0,0,0,112.81,71.3V91.757h-1.739V77.719A1.022,1.022,0,0,0,110.05,76.7h-3.5a1.022,1.022,0,0,0-1.022,1.022V91.757h-1.757V74.8a1.022,1.022,0,0,0-1.022-1.022h-3.5A1.022,1.022,0,0,0,98.228,74.8V91.757H96.489V80.636a1.022,1.022,0,0,0-1.022-1.022h-3.5a1.022,1.022,0,0,0-1.022,1.022V91.757H89.829a1.022,1.022,0,0,0,0,2.044h29.836a1.022,1.022,0,0,0,0-2.044" transform="translate(-83.469 -66.057)" fill="#b8191a"/>
  </g>
</svg>
